<svg width="60" height="54" viewBox="0 0 60 54" fill="none" xmlns="http://www.w3.org/2000/svg">
<g clip-path="url(#clip0_57_310)">
<rect x="12" y="8.99988" width="36" height="36" rx="8" fill="url(#paint0_linear_57_310)"/>
<path d="M32.5455 20.0021L32.5658 20.0989C32.424 22.9001 32.622 25.7081 32.9258 28.4936C33.6966 28.3874 34.4799 28.4102 35.2433 28.5611C36.0286 28.6965 36.7941 28.9285 37.5225 29.2519C37.9253 29.4454 38.3393 29.6591 38.6205 30.0169C38.859 30.3319 38.76 30.7661 38.5913 31.0901C38.3213 31.5604 37.8825 31.9091 37.428 32.1904C36.2445 32.9104 34.872 33.2321 33.5085 33.3716C32.9505 33.4459 32.3903 33.4571 31.83 33.4391C31.4745 29.4949 31.074 25.5439 30.327 21.6424C30.2933 21.3971 30.192 21.1654 30.174 20.9179C30.372 20.8425 30.5678 20.7607 30.7632 20.6771L31.1533 20.5087C31.6089 20.3129 32.0665 20.1242 32.5455 20.0021ZM33.9832 29.8121C33.9839 29.9361 33.9967 30.0597 34.0215 30.1811C34.1498 30.8314 34.1813 31.4996 34.3073 32.1521C34.7933 31.8259 35.259 31.4681 35.727 31.1149C35.9025 30.9709 36.105 30.8471 36.2445 30.6649C36.0285 30.5231 35.7743 30.4511 35.5403 30.3521C35.025 30.1564 34.5165 29.9449 33.9832 29.8121ZM17.3805 19.9999C17.4188 20.3599 17.349 20.7289 17.3513 21.0911C17.3307 23.5637 17.4637 26.0352 17.7495 28.4914C19.2098 28.2754 20.7015 28.6039 22.0673 29.1281C22.4782 29.2854 22.8635 29.503 23.2102 29.7739C23.397 29.9359 23.5883 30.1429 23.5815 30.4039C23.613 30.9551 23.2372 31.4209 22.8435 31.7651C22.162 32.303 21.3826 32.7034 20.5485 32.9441C19.2849 33.3119 17.9714 33.4789 16.656 33.4391C16.2713 29.2519 15.8573 25.0444 15 20.9201C15.5227 20.7123 16.0417 20.4955 16.557 20.2699C16.827 20.1641 17.0925 20.0291 17.3805 19.9999ZM18.8093 29.8121C18.897 30.5884 19.0163 31.3669 19.1355 32.1409C19.6935 31.7584 20.2335 31.3511 20.7735 30.9439C20.8846 30.8646 20.9844 30.7709 21.0705 30.6649C20.9355 30.5614 20.7712 30.5231 20.6205 30.4534C20.0243 30.2194 19.4303 29.9741 18.8093 29.8121ZM29.6543 27.1099C29.1255 26.9479 28.5585 27.0401 28.0185 27.0784C28.167 28.9459 28.3515 30.8089 28.5293 32.6719C28.9343 32.6831 29.3393 32.6561 29.742 32.6471C29.724 30.8021 29.778 28.9504 29.6543 27.1121V27.1099ZM44.8283 27.1099C44.2995 26.9524 43.7303 27.0244 43.1903 27.0784C43.3433 28.9414 43.5278 30.8089 43.7078 32.6719C44.1127 32.6854 44.5178 32.6494 44.9273 32.6561C44.8823 30.8089 44.9565 28.9549 44.8283 27.1099ZM25.0282 26.8601C24.5422 26.7679 24.0405 26.8894 23.559 26.9771C23.5073 26.9996 23.388 26.9839 23.3993 27.0671C23.748 28.8851 24.1103 30.7031 24.468 32.5189C24.873 32.4514 25.2893 32.4424 25.6943 32.3794C25.5165 30.7841 25.386 29.1844 25.1655 27.5959C25.125 27.3484 25.1025 27.1009 25.0305 26.8601H25.0282ZM40.209 26.8511C39.669 26.7679 39.1155 26.9051 38.589 27.0221C38.58 27.1841 38.6295 27.3394 38.661 27.4991C38.9782 29.1731 39.318 30.8471 39.642 32.5211C40.0493 32.4536 40.4633 32.4379 40.8705 32.3839C40.7085 30.8044 40.569 29.2249 40.3552 27.6521C40.317 27.3844 40.2878 27.1121 40.2113 26.8511H40.209ZM26.4772 21.4871L26.3197 21.4961C25.9305 21.5254 25.539 21.5636 25.1497 21.6401C25.7932 25.0511 26.1105 28.5139 26.4435 31.9609C26.835 31.9811 27.222 31.9721 27.609 32.0104C27.2895 28.5229 27.015 25.0354 26.7855 21.5411C26.6364 21.4913 26.4779 21.476 26.322 21.4961L26.4772 21.4871ZM41.9573 21.5479C41.4195 21.4331 40.8593 21.5614 40.326 21.6401C40.974 25.0489 41.2845 28.5139 41.622 31.9609C42.009 31.9811 42.396 31.9721 42.783 32.0104C42.4654 28.5263 42.1902 25.0386 41.9573 21.5479ZM28.5855 24.2771C28.3515 24.2411 28.1085 24.2996 27.8722 24.2996C27.906 24.9971 27.9803 25.6946 28.0185 26.3944C28.2075 26.3539 28.4055 26.3854 28.59 26.3269C28.6643 25.6451 28.599 24.9611 28.59 24.2794L28.5855 24.2771ZM43.7685 24.2704C43.53 24.2411 43.287 24.2861 43.0462 24.2929L43.197 26.3921L43.7572 26.3404C43.854 25.6564 43.773 24.9611 43.7685 24.2704ZM29.256 24.2479H28.86C28.905 24.9364 28.8735 25.6339 28.932 26.3269C29.1705 26.3539 29.409 26.3809 29.6475 26.3629C29.637 25.6729 29.637 24.9828 29.6475 24.2929C29.3876 24.2473 29.1235 24.2307 28.86 24.2434L29.256 24.2479ZM44.034 24.2434C44.0813 24.9409 44.0453 25.6429 44.115 26.3381C44.3513 26.3449 44.5875 26.3831 44.8215 26.3606C44.8125 25.6721 44.817 24.9814 44.826 24.2906C44.5644 24.247 44.2989 24.2319 44.034 24.2456V24.2434ZM23.6535 24.1534C23.4195 24.1579 23.1855 24.2119 22.9515 24.2479C23.0595 24.9431 23.208 25.6361 23.3295 26.3314C23.523 26.2931 23.712 26.2391 23.9032 26.2054C23.9032 25.5169 23.766 24.8329 23.6557 24.1534H23.6535ZM38.832 24.1534C38.5912 24.1579 38.3595 24.2119 38.13 24.2479C38.238 24.9431 38.3843 25.6361 38.5035 26.3314C38.697 26.2931 38.8815 26.2414 39.075 26.2054C39.0493 25.516 38.968 24.8297 38.832 24.1534ZM24.7133 24.0611C24.4593 23.993 24.1921 23.9907 23.937 24.0544C24.0225 24.7654 24.108 25.4741 24.207 26.1829C24.4455 26.1514 24.6862 26.1469 24.927 26.1334C24.8775 25.4449 24.7875 24.7541 24.7155 24.0611H24.7133ZM39.8108 24.0319C39.5813 24.0139 39.336 23.9869 39.1133 24.0589C39.1965 24.7654 39.2843 25.4741 39.3832 26.1829C39.624 26.1514 39.8625 26.1469 40.1033 26.1334C40.0605 25.5011 39.966 24.8711 39.9142 24.2389C39.8985 24.1624 39.921 24.0319 39.8085 24.0341V24.0319H39.8108Z" fill="white"/>
</g>
<defs>
<linearGradient id="paint0_linear_57_310" x1="30" y1="8.99988" x2="30" y2="44.9999" gradientUnits="userSpaceOnUse">
<stop stop-color="#F66EA5"/>
<stop offset="1" stop-color="#C82A99"/>
</linearGradient>
<clipPath id="clip0_57_310">
<rect width="36" height="36" fill="white" transform="translate(12 8.99988)"/>
</clipPath>
</defs>
</svg>
