<svg width="60" height="54" viewBox="0 0 60 54" fill="none" xmlns="http://www.w3.org/2000/svg">
<path fill-rule="evenodd" clip-rule="evenodd" d="M38.1923 40.2691C31.1826 40.2691 25.5 35.6198 25.5 29.8845C25.5 24.1492 31.1826 19.4999 38.1923 19.4999C45.2021 19.4999 50.8846 24.1492 50.8846 29.8845C50.8846 32.8317 49.3841 35.4922 46.9739 37.3823L48 41.9999L44.1026 39.0769C42.3375 39.8382 40.3264 40.2691 38.1923 40.2691Z" fill="url(#paint0_linear_57_309)"/>
<path fill-rule="evenodd" clip-rule="evenodd" d="M25.5 37.4999C34.6127 37.4999 42 31.4557 42 23.9999C42 16.544 34.6127 10.4999 25.5 10.4999C16.3873 10.4999 9 16.544 9 23.9999C9 27.8313 10.9508 31.2899 14.084 33.7471L12.75 39.75L17.8167 35.95C20.1113 36.9397 22.7257 37.4999 25.5 37.4999Z" fill="url(#paint1_linear_57_309)"/>
<circle cx="2.25" cy="2.25" r="2.25" transform="matrix(-1 0 0 1 33 19.4999)" fill="white"/>
<circle cx="2.25" cy="2.25" r="2.25" transform="matrix(-1 0 0 1 22.5 19.4999)" fill="white"/>
<defs>
<linearGradient id="paint0_linear_57_309" x1="32.25" y1="26.2499" x2="48.75" y2="37.4999" gradientUnits="userSpaceOnUse">
<stop offset="0.122938" stop-color="#039953"/>
<stop offset="1" stop-color="#16BC6F"/>
</linearGradient>
<linearGradient id="paint1_linear_57_309" x1="14.25" y1="13.4999" x2="34.5938" y2="34.8749" gradientUnits="userSpaceOnUse">
<stop stop-color="#71DC05"/>
<stop offset="1" stop-color="#05BE68"/>
</linearGradient>
</defs>
</svg>
