<svg width="103" height="54" viewBox="0 0 103 54" fill="none" xmlns="http://www.w3.org/2000/svg">
<path fill-rule="evenodd" clip-rule="evenodd" d="M14.0171 20.2473C13.5999 27.9982 13.1654 32.2132 12.7137 32.8922L15.5275 38.4306C17.7717 36.5404 18.9887 30.4812 19.17 20.2473H14.0171ZM22.9246 12.9999V36.7964H19.5871C19.7799 39.3427 21.1897 40.7438 23.8165 40.9999C26.1009 40.8474 27.4733 39.4462 27.9394 36.7964V12.9999H22.9246ZM31.5214 19.9395C31.5732 30.556 32.7585 36.7187 35.0717 38.4306L37.8222 32.9411C37.126 31.3616 36.6628 27.0286 36.4355 19.9395H31.5214ZM44.2238 12.9999L39.7039 21.8556C38.717 24.655 40.2246 25.7052 44.2267 25.006L41.3726 31.1199C40.6332 32.967 41.4014 33.8905 43.6829 33.8905H48.2L50.3722 29.7964H48.2C47.5267 29.7446 47.357 29.2642 47.6936 28.3579C48.0302 27.4516 49.4026 24.6464 51.8078 19.9395H46.9542L46.4305 20.7594C45.6911 20.9493 45.4178 20.6731 45.6077 19.9395L49.2875 12.9999H44.2238ZM40.4548 35.8326L37.8222 40.3209C37.7589 40.7726 38.2883 40.9999 39.4075 40.9999H45.6048L48.4215 35.8326H40.4548ZM52.76 14.6514V19.6719H56.2471V35.8327H51.0855L48.4213 40.9999H66.363V35.8327H61.3396V19.6719H64.7489V14.6514H52.76ZM76.6659 12.9999V14.6514C81.1686 14.4586 83.7637 16.1043 84.4571 19.5914V24.2235C87.8809 24.2235 89.8229 25.711 90.2861 28.6859V37.0008C89.4805 39.6362 87.783 40.9712 85.1936 40.9999C81.9914 40.5166 80.3227 39.0377 80.1875 36.5577H85.1936V30.9876C85.1936 30.0209 84.67 29.5347 83.6141 29.526H76.6659V40.9999H71.5216V29.526H66.363V24.2235H71.5216V19.8676H68.0835V14.6514H71.5216V12.9999H76.6659ZM78.326 19.6518H76.5134V24.5544H79.3387V20.4804C79.1834 19.928 78.8439 19.6518 78.326 19.6518ZM85.0555 16.9761V19.9395H87.665H87.924V19.9267C89.2435 19.7951 90.2717 18.6686 90.2717 17.2983C90.2717 15.8368 89.1036 14.6514 87.665 14.6514C87.0224 14.6575 86.4038 14.8965 85.9239 15.324C85.4441 15.7515 85.1355 16.3385 85.0555 16.9761Z" fill="#F33035"/>
</svg>
