<svg width="106" height="54" viewBox="0 0 106 54" fill="none" xmlns="http://www.w3.org/2000/svg">
<g clip-path="url(#clip0_57_311)">
<path d="M41.2774 37.8289H38.1853V36.043C37.0124 37.3891 36.0261 38.0555 34.9465 38.0555C34.0002 38.0555 33.3338 37.6024 33.0139 36.8027C32.814 36.3095 32.6674 35.5365 32.6674 34.4169V21.4087H35.7595V34.7235C35.8262 35.1766 36.0261 35.3499 36.4126 35.3499C36.9991 35.3499 37.5322 34.8301 38.1853 33.9105V21.4087H41.2774V37.8289ZM30.3883 26.7799C30.3883 25.0206 30.0418 23.7145 29.4154 22.8748C28.589 21.7552 27.3095 21.2888 26.0034 21.2888C24.5373 21.2888 23.4177 21.7419 22.5914 22.8748C21.9649 23.7011 21.6184 25.034 21.6184 26.7933V32.631C21.6184 34.377 21.925 35.5765 22.5514 36.4028C23.3777 37.5224 24.7105 38.1088 26.0034 38.1088C27.2962 38.1088 28.6557 37.5224 29.482 36.4028C30.1084 35.5765 30.3883 34.377 30.3883 32.631V26.7799ZM27.2962 32.9508C27.4561 34.5769 26.9497 35.3766 25.99 35.3766C25.0304 35.3766 24.5239 34.5769 24.6839 32.9508V26.4467C24.5239 24.8207 25.0304 24.061 25.99 24.061C26.9497 24.061 27.4561 24.8207 27.2962 26.4467V32.9508ZM18.2064 28.8858V37.8289H14.9544V28.8858C14.9544 28.8858 11.5824 17.9301 10.8893 15.8909H14.3013L16.5804 24.4475L18.8462 15.8909H22.2582L18.2064 28.8858Z" fill="white"/>
<path d="M44.4162 16.2932C44.6776 12.301 47.3429 9.25654 51.3177 8.80139C55.0358 8.37563 60.8102 7.99988 69.6107 7.99988C78.1711 7.99988 83.8682 8.3554 87.5948 8.76666C91.7479 9.22499 94.5227 12.4457 94.7975 16.615C94.9718 19.2602 95.1107 22.7132 95.1107 26.9999C95.1107 32.6779 94.8669 36.8932 94.6201 39.706C94.3745 42.5046 92.7231 44.6462 89.942 45.0436C86.5474 45.5286 80.4581 45.9999 69.6107 45.9999C58.4712 45.9998 52.3494 45.5028 49.011 45.0043C46.4026 44.6148 44.83 42.6162 44.5926 39.9896C44.3488 37.2931 44.1107 33.0987 44.1107 26.9999C44.1107 22.4102 44.2455 18.899 44.4162 16.2932Z" fill="#EE3A1E"/>
<path d="M88.9875 29.8791V26.5033C88.9875 24.7409 88.6613 23.453 88.0843 22.6124C87.3066 21.4872 86.2028 20.8906 84.8229 20.8906C83.4055 20.8906 82.3016 21.4872 81.5114 22.6124C80.9218 23.453 80.5832 24.8087 80.5832 26.5711V32.3601C80.5832 34.1089 80.9595 35.3426 81.549 36.1696C82.3518 37.2949 83.4557 37.8643 84.8982 37.8643C86.3407 37.8643 87.4822 37.2678 88.2474 36.0747C88.5861 35.546 88.7993 34.9495 88.8996 34.2852C88.9247 33.9869 89 33.3091 89 32.3329V31.8584H86.0899C86.0899 33.065 86.0899 33.77 86.0648 33.9327C85.9017 34.7326 85.5128 35.1393 84.8229 35.1393C83.8696 35.1393 83.4682 34.3665 83.4808 32.8481V29.8791H88.9875ZM83.4808 25.5679C83.4808 24.0224 83.8696 23.6021 84.7978 23.6021C85.7135 23.6021 86.0773 24.063 86.0773 25.595V27.3981H83.4808V25.5679ZM76.1552 20.85C75.1392 20.85 74.1231 21.5278 73.2325 22.7209V15.4949H70.4855V37.6474H73.2325V35.9798C74.1608 37.2135 75.1643 37.8507 76.1552 37.8507C77.2591 37.8507 78.0619 37.2135 78.4382 35.9798C78.6263 35.2749 78.7392 34.2038 78.7392 32.6719V26.056C78.7392 24.4969 78.5511 23.4258 78.3629 22.7615C77.9991 21.5414 77.2591 20.85 76.1552 20.85ZM75.8416 32.8481C75.8416 34.5021 75.4779 35.1393 74.6876 35.1393C74.236 35.1393 73.7092 34.8817 73.2451 34.3801V24.3613C73.7092 23.8732 74.236 23.6021 74.6876 23.6021C75.4904 23.6021 75.8416 24.0902 75.8416 25.7441V32.8481ZM68.19 37.6474H65.2798V35.8307C64.176 37.2 63.2477 37.8778 62.2317 37.8778C61.3411 37.8778 60.7139 37.4169 60.4128 36.6035C60.2247 36.1019 60.0867 35.3155 60.0867 34.1767V21.1211H62.9969V34.5021C63.0596 34.963 63.2477 35.1393 63.6115 35.1393C64.1634 35.1393 64.6652 34.6106 65.2798 33.6751V21.1211H68.19V37.6474Z" fill="white"/>
<path d="M57.1766 37.6474H54.1159V18.6401H50.9047V15.4949H60.5383V18.6401H57.1766V37.6474Z" fill="white"/>
</g>
<defs>
<clipPath id="clip0_57_311">
<rect width="84.2214" height="38" fill="white" transform="translate(10.8893 7.99988)"/>
</clipPath>
</defs>
</svg>
